# xmcd
#
# Track frame offsets:
#	150
#	13768
#	27936
#	41346
#	54471
#	68093
#	82938
#	95591
#	111071
#	125028
#	137696
#	152291
#	166803
#	178108
#	191138
#	205156
#	217588
#	231633
#	245161
#	258998
#	272051
#	284821
#	299541
#	313138
#
# Disc length: 4362 seconds
#
# Revision: 2
# Processed by: cddbd v1.5.1PL2 Copyright (c) Steve Scherf et al.
# Submitted via: audiograbber 1.83.01
#
DISCID=65110818
DTITLE=Various Artist - Guitar Blues
DYEAR=1990
DGENRE=Blues
TTITLE0=Robert Johnson - Sweet Home Chicago
TTITLE1=Bukka White - The Panama Limited
TTITLE2=Charley Jordan - Keep It Clean (No. 2)
TTITLE3=Willie Brown - Future Blues
TTITLE4=Willie Reed - Dreaming Blues
TTITLE5=Mississippi Bracey - You Scolded Me, Drove Me from Your Door
TTITLE6=George Carter - Rising River Blues
TTITLE7=Tampa Red - Black Angel Blues
TTITLE8=Robert Wilkins - I'll Go With Her
TTITLE9=Lonnie Johnson - Blues In G
TTITLE10=Charlie Pickett - Down The Highway
TTITLE11=Arthur Petties - Two Time Blues
TTITLE12=Sam Collins - Jail House Blues
TTITLE13=David Edwards - Worried Life Blues
TTITLE14=Buddy Moss - Oh Lordy Mama (No. 2)
TTITLE15=Big Bill Broonzy - I Can't Be Satisfied
TTITLE16=Mattie Delaney - Down The Big Road Blues
TTITLE17=Blind Blake - Rope Stretching Blues (Pt. 1)
TTITLE18=Scrapper Blackwell - 'A' Blues
TTITLE19=Walter Vincent - Overtime Blues
TTITLE20=Robert Petway - Catfish Blues
TTITLE21=William Moore - One Way Gal
TTITLE22=Pearl Dickson - Little Rock Blues
TTITLE23=William Harris - Bull Frog Blues
EXTD=
EXTT0=
EXTT1=
EXTT2=
EXTT3=
EXTT4=
EXTT5=
EXTT6=
EXTT7=
EXTT8=
EXTT9=
EXTT10=
EXTT11=
EXTT12=
EXTT13=
EXTT14=
EXTT15=
EXTT16=
EXTT17=
EXTT18=
EXTT19=
EXTT20=
EXTT21=
EXTT22=
EXTT23=
PLAYORDER=
